<svg xmlns="http://www.w3.org/2000/svg" xmlns:xlink="http://www.w3.org/1999/xlink" viewBox="0,0,256,256" width="104px" height="104px" fill-rule="nonzero"><g fill="#ffffff" fill-rule="nonzero" stroke="none" stroke-width="1" stroke-linecap="butt" stroke-linejoin="miter" stroke-miterlimit="10" stroke-dasharray="" stroke-dashoffset="0" font-family="none" font-weight="none" font-size="none" text-anchor="none" style="mix-blend-mode: normal"><g transform="scale(9.84615,9.84615)"><path d="M12.875,1.03125c-1.01953,0.00391 -2.01953,0.10156 -2.875,0.25c-2.51953,0.44141 -2.96875,1.36328 -2.96875,3.0625v2.625h6v1.0625h-8.84375c-1.73047,0 -3.27344,1.04297 -3.75,3c-0.54687,2.24219 -0.57031,3.625 0,5.96875c0.42578,1.74219 1.45703,3 3.1875,3h2.375v-3.28125c0,-1.94531 1.69922,-3.75 3.71875,-3.75h5.25c1.65625,0 3,-1.35547 3,-3v-5.625c0,-1.59766 -1.38281,-2.79297 -3,-3.0625c-1.02344,-0.16797 -1.07422,-0.25391 -2.09375,-0.25zM9.5,3.375c0.61328,0 1.125,0.50391 1.125,1.125c0,0.61719 -0.51172,1.125 -1.125,1.125c-0.61719,0 -1.125,-0.50781 -1.125,-1.125c0,-0.62109 0.50781,-1.125 1.125,-1.125zM19,7v3.28125c0,1.94531 -1.69922,3.75 -3.71875,3.75h-5.25c-1.65625,0 -3,1.35547 -3,3v5.625c0,1.59766 1.38281,2.79688 3,3.0625c1.02344,0.16797 1.07422,0.25781 2.09375,0.25c1.01953,-0.00391 2.01953,-0.10156 2.875,-0.25c2.51953,-0.4375 2.96875,-1.36328 2.96875,-3.0625v-2.625h-6v-1.0625h8.84375c1.73047,0 3.27344,-1.04297 3.75,-3c0.54688,-2.24219 0.57031,-3.625 0,-5.96875c-0.42578,-1.74219 -1.45703,-3 -3.1875,-3zM15.5,21.375c0.61719,0 1.125,0.50781 1.125,1.125c0,0.62109 -0.50781,1.125 -1.125,1.125c-0.61328,0 -1.125,-0.50391 -1.125,-1.125c0,-0.61719 0.51172,-1.125 1.125,-1.125z"></path></g></g></svg>